<svg width="248" height="258" viewBox="0 0 248 258" fill="none" xmlns="http://www.w3.org/2000/svg">
<g filter="url(#filter0_dd_2_106)">
<rect x="37" y="37" width="156.562" height="167" rx="8" fill="url(#paint0_linear_2_106)"/>
</g>
<mask id="mask0_2_106" style="mask-type:alpha" maskUnits="userSpaceOnUse" x="37" y="37" width="157" height="167">
<path d="M37 45C37 40.5817 40.5817 37 45 37H185.562C189.981 37 193.562 40.5817 193.562 45V196C193.562 200.418 189.981 204 185.562 204H45C40.5817 204 37 200.418 37 196V45Z" fill="url(#paint1_linear_2_106)"/>
</mask>
<g mask="url(#mask0_2_106)">
</g>
<mask id="mask1_2_106" style="mask-type:alpha" maskUnits="userSpaceOnUse" x="37" y="37" width="157" height="167">
<path d="M37 45C37 40.5817 40.5817 37 45 37H185.562C189.981 37 193.562 40.5817 193.562 45V196C193.562 200.418 189.981 204 185.562 204H45C40.5817 204 37 200.418 37 196V45Z" fill="url(#paint2_linear_2_106)"/>
</mask>
<g mask="url(#mask1_2_106)">
<rect x="-13.6218" y="110.062" width="110.637" height="194.137" rx="4" transform="rotate(-30 -13.6218 110.062)" fill="url(#paint3_linear_2_106)"/>
<rect x="71.1339" y="131.981" width="110.637" height="194.137" rx="4" transform="rotate(-30 71.1339 131.981)" fill="url(#paint4_linear_2_106)"/>
<path d="M85.5506 97.0048C81.5477 97.0048 83.2495 96.93 77.6171 97.3697C71.6652 97.8342 66.2048 100.601 62.3247 104.968C60.2178 107.339 56.9446 108.298 53.9231 107.333L51.1397 106.443C51.1397 106.443 49.7179 136.218 58.3096 139.964H113.246V124.693C113.246 109.4 100.845 97.0054 85.5506 97.0048Z" fill="#D77F4A"/>
<path d="M71.4041 173.22V173.212H62.9986C56.6037 173.212 51.4198 178.396 51.4198 184.791V204.043H113.246V184.791C113.246 178.396 108.062 173.212 101.667 173.212H93.2619V173.22H71.4041Z" fill="#3C87D0"/>
<path d="M71.3639 164.488V173.22C71.3639 179.256 76.2569 184.149 82.2927 184.149C88.3285 184.149 93.2215 179.256 93.2215 173.22C93.2215 170.159 93.2215 167.445 93.2215 164.488H71.3639Z" fill="#FFB09E"/>
<path d="M71.3639 173.22C71.3639 173.725 71.4011 174.222 71.4674 174.709C74.7828 176.199 78.4659 177.03 82.3454 177.03C86.1814 177.03 89.8249 176.218 93.1111 174.759C93.182 174.256 93.221 173.743 93.221 173.22C93.221 170.159 93.221 167.445 93.221 164.488H71.3639V173.22Z" fill="#FFA78F"/>
<path d="M69.4581 150.883H55.9472C51.0059 150.883 46.9999 146.877 46.9999 141.936C46.9999 136.994 51.0059 132.989 55.9472 132.989H69.4581V150.883Z" fill="#FFB09E"/>
<path d="M95.2076 132.989H108.719C113.66 132.989 117.666 136.995 117.666 141.936C117.666 146.877 113.66 150.883 108.719 150.883H95.2076V132.989Z" fill="#FFA78F"/>
<path d="M56.0352 137.006V146.865C56.0352 161.231 67.8146 172.877 82.3456 172.877C96.8763 172.877 108.656 161.231 108.656 146.865V137.006C108.656 122.64 96.8765 110.994 82.3456 110.994C67.8146 110.994 56.0352 122.64 56.0352 137.006Z" fill="#FFCEBF"/>
<path d="M66.9392 155.579H62.3683C60.9994 155.579 59.8899 154.469 59.8899 153.1C59.8899 151.732 60.9994 150.622 62.3683 150.622H66.9395C68.3084 150.622 69.4178 151.732 69.4178 153.1C69.4178 154.469 68.3084 155.579 66.9392 155.579Z" fill="#FE8F83"/>
<path d="M83.2337 111.013C82.2307 111.041 81.2408 111.12 80.269 111.257C93.0293 113.051 102.842 123.895 102.842 137.006V146.865C102.842 159.977 93.0293 170.82 80.269 172.615C81.2408 172.751 82.2307 172.831 83.2337 172.859C97.3529 172.395 108.656 160.937 108.656 146.865V137.006C108.656 122.934 97.3529 111.476 83.2337 111.013Z" fill="#FFB09E"/>
<path d="M86.6499 97.0323H82.0011C81.2449 97.0743 80.2064 97.1676 77.6174 97.3696C71.8622 97.8192 66.5674 100.421 62.7157 104.54V116.098C62.7157 125.426 70.2778 132.988 79.6059 132.988H113.246V124.693C113.246 109.768 101.435 97.6067 86.6499 97.0323Z" fill="#D77F4A"/>
<path d="M86.6499 97.0327H82.0012C81.3642 97.068 80.5233 97.1401 78.7277 97.2828C92.1799 99.1713 102.532 110.721 102.532 124.694V132.989H113.247V124.694C113.246 109.768 101.435 97.6068 86.6499 97.0327Z" fill="#C86D36"/>
<path d="M101.667 173.212H93.2618V173.221H92.8649C99.1047 173.398 104.11 178.508 104.11 184.791V204.043H113.246V184.791C113.246 178.396 108.062 173.212 101.667 173.212Z" fill="#0078C8"/>
<path d="M102.217 155.579H97.6455C96.2766 155.579 95.1671 154.469 95.1671 153.1C95.1671 151.732 96.2766 150.622 97.6455 150.622H102.217C103.586 150.622 104.695 151.732 104.695 153.1C104.695 154.469 103.586 155.579 102.217 155.579Z" fill="#FE8F83"/>
<path d="M82.2926 162.361C77.9919 162.361 74.4933 158.863 74.4933 154.562C74.4933 153.348 75.4772 152.365 76.6909 152.365C77.9047 152.365 78.8886 153.348 78.8886 154.562C78.8886 156.439 80.4157 157.966 82.2929 157.966C84.1696 157.966 85.6969 156.439 85.6969 154.562C85.6969 153.348 86.6808 152.365 87.8946 152.365C89.1084 152.365 90.0923 153.348 90.0923 154.562C90.0918 158.863 86.5931 162.361 82.2926 162.361Z" fill="#FFA799"/>
<path d="M95.1672 148.515C93.9534 148.515 92.9695 147.531 92.9695 146.317V141.46C92.9695 140.246 93.9534 139.262 95.1672 139.262C96.381 139.262 97.3649 140.246 97.3649 141.46V146.317C97.3649 147.531 96.3813 148.515 95.1672 148.515Z" fill="#5A5A5A"/>
<path d="M69.4179 148.515C68.2041 148.515 67.2202 147.531 67.2202 146.317V141.46C67.2202 140.246 68.2041 139.262 69.4179 139.262C70.6317 139.262 71.6156 140.246 71.6156 141.46V146.317C71.6153 147.531 70.6317 148.515 69.4179 148.515Z" fill="#5A5A5A"/>
<path d="M132.644 174.86H131.508C125.336 174.86 120.333 179.863 120.333 186.034V204.345H177.321V186.034C177.321 179.863 172.318 174.86 166.147 174.86H132.644Z" fill="#F07281"/>
<path d="M166.147 174.86H156.995C163.167 174.86 168.169 179.863 168.169 186.034V204.345H177.321V186.034C177.321 179.862 172.319 174.86 166.147 174.86Z" fill="#EB5569"/>
<path d="M148.79 186.629C143.415 186.629 139.058 182.271 139.058 176.896V153.474H158.523V176.896C158.523 182.271 154.165 186.629 148.79 186.629Z" fill="#FFB09E"/>
<path d="M139.058 175.51C142.021 176.846 145.312 177.596 148.783 177.596C152.259 177.596 155.555 176.843 158.523 175.503V153.474H139.058V175.51Z" fill="#FFA78F"/>
<path d="M183.441 177.845H188.305V164.452C188.305 156.631 181.965 150.29 174.143 150.29H169.279V163.683C169.279 171.504 175.62 177.845 183.441 177.845Z" fill="#5A5A5A"/>
<path d="M174.143 150.29H169.279V150.697C175.472 152.211 180.069 157.793 180.069 164.452V177.438C181.15 177.702 182.279 177.845 183.441 177.845H188.305V164.452C188.305 156.63 181.965 150.29 174.143 150.29Z" fill="#444444"/>
<path d="M114.067 177.845H109.203V164.452C109.203 156.631 115.544 150.29 123.366 150.29H128.23V163.683C128.23 171.504 121.889 177.845 114.067 177.845Z" fill="#5A5A5A"/>
<path d="M137.326 153.474H125.263C120.858 153.474 117.288 149.903 117.288 145.499C117.288 141.095 120.858 137.525 125.263 137.525H137.326V153.474Z" fill="#FFB09E"/>
<path d="M160.183 137.525H172.246C176.65 137.525 180.22 141.095 180.22 145.499C180.22 149.903 176.65 153.474 172.246 153.474H160.183V137.525Z" fill="#FFA78F"/>
<path d="M148.783 117.957C135.829 117.957 125.328 128.328 125.328 141.122V142.688V149.891C125.328 162.685 135.829 173.057 148.783 173.057C161.736 173.057 172.237 162.685 172.237 149.891V141.122C172.237 128.328 161.736 117.957 148.783 117.957Z" fill="#FFCEBF"/>
<path d="M148.783 117.957C147.547 117.957 146.335 118.052 145.151 118.234C156.38 119.958 164.974 129.548 164.974 141.122V149.891C164.974 161.465 156.38 171.055 145.151 172.779C146.335 172.961 147.547 173.057 148.783 173.057C161.736 173.057 172.237 162.685 172.237 149.891V141.122C172.237 128.328 161.736 117.957 148.783 117.957Z" fill="#FFB09E"/>
<path d="M135.642 158.5H131.178C129.841 158.5 128.757 157.417 128.757 156.08C128.757 154.743 129.841 153.659 131.178 153.659H135.642C136.979 153.659 138.063 154.743 138.063 156.08C138.063 157.417 136.979 158.5 135.642 158.5Z" fill="#FE8F83"/>
<path d="M166.477 158.5H162.013C160.675 158.5 159.592 157.417 159.592 156.08C159.592 154.743 160.675 153.659 162.013 153.659H166.477C167.814 153.659 168.898 154.743 168.898 156.08C168.898 157.417 167.814 158.5 166.477 158.5Z" fill="#FE8F83"/>
<path d="M151.241 104.431C149.868 104.431 148.755 105.544 148.754 106.917C148.754 105.544 147.641 104.431 146.268 104.431C131.448 104.431 119.435 116.444 119.435 131.264V137.525H135.092C142.638 137.525 148.754 131.408 148.754 123.863C148.755 131.408 154.871 137.525 162.416 137.525H178.074V131.264C178.074 116.444 166.061 104.431 151.241 104.431Z" fill="#5A5A5A"/>
<path d="M151.241 104.431C150.529 104.431 149.888 104.732 149.435 105.212C161.148 108.094 169.837 118.662 169.837 131.264V137.525H178.074V131.264C178.074 116.444 166.061 104.431 151.241 104.431Z" fill="#444444"/>
<path d="M148.827 164.454C144.867 164.454 141.644 161.231 141.644 157.27C141.644 155.943 142.72 154.868 144.046 154.868C145.373 154.868 146.448 155.943 146.448 157.27C146.448 158.582 147.516 159.649 148.827 159.649C150.139 159.649 151.206 158.582 151.206 157.27C151.206 155.943 152.282 154.868 153.609 154.868C154.935 154.868 156.011 155.943 156.011 157.27C156.011 161.231 152.788 164.454 148.827 164.454Z" fill="#FFA799"/>
<path d="M159.816 152.698C158.49 152.698 157.414 151.623 157.414 150.296V146.025C157.414 144.698 158.49 143.623 159.816 143.623H161.652C162.979 143.623 164.054 144.698 164.054 146.025C164.054 147.157 163.272 148.106 162.219 148.36V150.296C162.219 151.623 161.143 152.698 159.816 152.698Z" fill="#5A5A5A"/>
<path d="M137.839 152.698C136.512 152.698 135.437 151.623 135.437 150.296V148.36C134.383 148.105 133.601 147.157 133.601 146.025C133.601 144.698 134.676 143.623 136.003 143.623H137.839C139.165 143.623 140.241 144.698 140.241 146.025V150.296C140.241 151.623 139.165 152.698 137.839 152.698Z" fill="#5A5A5A"/>
</g>
<defs>
<filter id="filter0_dd_2_106" x="0" y="0" width="247.562" height="258" filterUnits="userSpaceOnUse" color-interpolation-filters="sRGB">
<feFlood flood-opacity="0" result="BackgroundImageFix"/>
<feColorMatrix in="SourceAlpha" type="matrix" values="0 0 0 0 0 0 0 0 0 0 0 0 0 0 0 0 0 0 127 0" result="hardAlpha"/>
<feOffset dx="-7" dy="-7"/>
<feGaussianBlur stdDeviation="15"/>
<feColorMatrix type="matrix" values="0 0 0 0 0.14902 0 0 0 0 0.180392 0 0 0 0 0.196078 0 0 0 1 0"/>
<feBlend mode="normal" in2="BackgroundImageFix" result="effect1_dropShadow_2_106"/>
<feColorMatrix in="SourceAlpha" type="matrix" values="0 0 0 0 0 0 0 0 0 0 0 0 0 0 0 0 0 0 127 0" result="hardAlpha"/>
<feOffset dx="14" dy="14"/>
<feGaussianBlur stdDeviation="20"/>
<feColorMatrix type="matrix" values="0 0 0 0 0.0646354 0 0 0 0 0.0646354 0 0 0 0 0.0708333 0 0 0 0.75 0"/>
<feBlend mode="normal" in2="effect1_dropShadow_2_106" result="effect2_dropShadow_2_106"/>
<feBlend mode="normal" in="SourceGraphic" in2="effect2_dropShadow_2_106" result="shape"/>
</filter>
<linearGradient id="paint0_linear_2_106" x1="37" y1="37" x2="193.562" y2="204" gradientUnits="userSpaceOnUse">
<stop stop-color="#1F2328"/>
<stop offset="1" stop-color="#1A1C1F"/>
</linearGradient>
<linearGradient id="paint1_linear_2_106" x1="37" y1="37" x2="193.562" y2="204" gradientUnits="userSpaceOnUse">
<stop stop-color="#1F2328"/>
<stop offset="1" stop-color="#1A1C1F"/>
</linearGradient>
<linearGradient id="paint2_linear_2_106" x1="37" y1="37" x2="193.562" y2="204" gradientUnits="userSpaceOnUse">
<stop stop-color="#1F2328"/>
<stop offset="1" stop-color="#1A1C1F"/>
</linearGradient>
<linearGradient id="paint3_linear_2_106" x1="6.35439" y1="118.152" x2="171.131" y2="269.253" gradientUnits="userSpaceOnUse">
<stop stop-color="#131517"/>
<stop offset="0.763408" stop-color="#1E2226" stop-opacity="0"/>
</linearGradient>
<linearGradient id="paint4_linear_2_106" x1="91.1101" y1="140.07" x2="255.887" y2="291.172" gradientUnits="userSpaceOnUse">
<stop stop-color="#131517"/>
<stop offset="0.763408" stop-color="#1E2226" stop-opacity="0"/>
</linearGradient>
</defs>
</svg>
