<svg width="248" height="258" viewBox="0 0 248 258" fill="none" xmlns="http://www.w3.org/2000/svg">
<g filter="url(#filter0_dd_2_55)">
<rect x="37" y="37" width="156.562" height="167" rx="8" fill="url(#paint0_linear_2_55)"/>
</g>
<mask id="mask0_2_55" style="mask-type:alpha" maskUnits="userSpaceOnUse" x="37" y="37" width="157" height="167">
<path d="M37 45C37 40.5817 40.5817 37 45 37H185.562C189.981 37 193.562 40.5817 193.562 45V196C193.562 200.418 189.981 204 185.562 204H45C40.5817 204 37 200.418 37 196V45Z" fill="url(#paint1_linear_2_55)"/>
</mask>
<g mask="url(#mask0_2_55)">
<rect x="-13.6218" y="110.062" width="110.637" height="194.137" rx="4" transform="rotate(-30 -13.6218 110.062)" fill="url(#paint2_linear_2_55)"/>
<rect x="71.1339" y="131.981" width="110.637" height="194.137" rx="4" transform="rotate(-30 71.1339 131.981)" fill="url(#paint3_linear_2_55)"/>
<path d="M116.326 139.744L91.2363 132.901H68.3999L43.3103 139.744C39.5847 140.76 37 144.144 37 148.006V204.265C37 205.841 38.2781 207.119 39.8545 207.119H122.636V148.006C122.636 144.144 120.052 140.76 116.326 139.744Z" fill="#B4E66E"/>
<path d="M94.0902 121.484H65.5451V144.319H94.0902V121.484Z" fill="#FAD098"/>
<path d="M65.5454 129.445C69.8325 131.644 74.6781 132.902 79.818 132.902C84.9579 132.902 89.8037 131.644 94.0905 129.445V121.484H65.5454V129.445Z" fill="#D7AF7D"/>
<path d="M105.509 90.0834V72.9563H54.1274V90.0837C50.9745 90.0837 48.4184 92.6395 48.4184 95.7927C48.4184 98.9456 50.9745 101.502 54.1274 101.502C54.1274 115.691 65.6295 127.193 79.8183 127.193C94.0071 127.193 105.509 115.691 105.509 101.502C108.662 101.502 111.218 98.9456 111.218 95.7927C111.218 92.6392 108.662 90.0834 105.509 90.0834Z" fill="#FFE1B4"/>
<path d="M68.4 101.502V72.9563H54.1274V90.0837C50.9745 90.0837 48.4184 92.6395 48.4184 95.7927C48.4184 98.9456 50.9745 101.502 54.1274 101.502C54.1274 115.691 65.6295 127.193 79.8183 127.193C82.2975 127.193 84.6865 126.823 86.9548 126.167C76.2417 123.072 68.4 113.211 68.4 101.502Z" fill="#FAD098"/>
<path d="M79.818 115.774C76.796 115.774 73.9081 114.349 71.8929 111.863C70.8978 110.638 71.0873 108.841 72.3111 107.848C73.5404 106.857 75.3358 107.046 76.3253 108.267C78.2096 110.587 81.4266 110.587 83.3112 108.267C84.3035 107.046 86.0989 106.857 87.3254 107.848C88.5492 108.842 88.7387 110.638 87.7437 111.863C85.7278 114.349 82.8399 115.774 79.818 115.774Z" fill="#D7AF7D"/>
<path d="M68.3999 101.502C66.8223 101.502 65.5454 100.224 65.5454 98.6472V95.7927C65.5454 94.2163 66.8223 92.9382 68.3999 92.9382C69.9776 92.9382 71.2544 94.2163 71.2544 95.7927V98.6472C71.2544 100.223 69.9776 101.502 68.3999 101.502Z" fill="#64463C"/>
<path d="M91.2363 101.502C89.6587 101.502 88.3818 100.224 88.3818 98.6472V95.7927C88.3818 94.2163 89.6587 92.9382 91.2363 92.9382C92.814 92.9382 94.0908 94.2163 94.0908 95.7927V98.6472C94.0908 100.223 92.814 101.502 91.2363 101.502Z" fill="#64463C"/>
<path d="M99.0336 87.3667C99.867 89.5742 102.227 90.5745 104.551 90.167C104.862 90.1124 105.182 90.0839 105.509 90.0839C106.555 90.0839 107.521 90.3853 108.364 90.8756V72.9565C108.364 68.6856 105.992 65.0065 102.519 63.0483C101.87 58.9617 98.3602 55.8291 94.0911 55.8291H71.2547C60.2191 55.8291 51.2729 64.7753 51.2729 75.811V90.8756C52.1155 90.3853 53.0823 90.0839 54.1274 90.0839C54.4944 90.0839 54.8523 90.1194 55.1982 90.1878C57.9785 90.7352 60.7621 89.1986 61.4579 86.452L62.3094 79.1019C62.5048 77.4153 64.114 76.2562 65.7665 76.6457C71.0134 77.8817 82.2689 79.7433 93.9893 76.6874C95.5918 76.2694 97.2017 77.35 97.474 78.9835L98.6073 85.7829C98.699 86.3327 98.8431 86.8623 99.0336 87.3667Z" fill="#D59F63"/>
<path d="M37 148.006V204.265C37 205.842 38.2781 207.12 39.8545 207.12H54.1271V166.344C54.1271 163.17 53.0692 160.087 51.1205 157.582L39.2259 142.288C37.842 143.823 37 145.829 37 148.006Z" fill="#A0D755"/>
<path d="M122.636 148.006V207.12H105.509V166.344C105.509 163.17 106.567 160.087 108.516 157.582L120.41 142.288C121.794 143.823 122.636 145.829 122.636 148.006Z" fill="#A0D755"/>
<path d="M71.2544 55.8291C60.2188 55.8291 51.2726 64.775 51.2726 75.811V90.8756C52.1152 90.3853 53.082 90.0839 54.1271 90.0839C54.4941 90.0839 54.852 90.1194 55.1979 90.1878C57.9782 90.7352 60.7618 89.1986 61.4579 86.4517L62.3095 79.1016C62.5048 77.415 64.114 76.2559 65.7665 76.6454C66.5172 76.8223 67.4196 77.01 68.3999 77.1958V72.9565C68.3999 63.4973 76.0681 55.8291 85.5273 55.8291C85.5273 55.8291 71.2544 55.8291 71.2544 55.8291Z" fill="#CD915A"/>
<path d="M71.2823 172.865C69.7047 172.865 68.4137 171.587 68.4137 170.011C68.4137 168.434 69.6765 167.156 71.2544 167.156H71.2823C72.86 167.156 74.1369 168.434 74.1369 170.011C74.1369 171.587 72.86 172.865 71.2823 172.865Z" fill="#FFDC64"/>
<path d="M71.2823 195.702C69.7047 195.702 68.4137 194.424 68.4137 192.847C68.4137 191.271 69.6765 189.993 71.2544 189.993H71.2823C72.86 189.993 74.1369 191.271 74.1369 192.847C74.1369 194.423 72.86 195.702 71.2823 195.702Z" fill="#FFDC64"/>
<path d="M71.2823 184.283C69.7047 184.283 68.4137 183.005 68.4137 181.429C68.4137 179.852 69.6765 178.574 71.2544 178.574H71.2823C72.86 178.574 74.1369 179.852 74.1369 181.429C74.1369 183.005 72.86 184.283 71.2823 184.283Z" fill="#FFDC64"/>
<path d="M82.6734 144.32H76.9644V207.12H82.6734V144.32Z" fill="#A0D755"/>
<path d="M167.687 70.4032C168.052 69.3947 168.309 68.35 168.309 67.2473C168.309 60.9412 161.919 55.8292 154.036 55.8292C146.154 55.8292 139.764 60.9412 139.764 67.2473C139.764 68.35 140.021 69.3947 140.385 70.4032C129.891 75.4855 122.636 86.205 122.636 98.6472C122.636 112.836 134.138 124.338 148.327 124.338H159.746C173.934 124.338 185.436 112.836 185.436 98.6472C185.436 86.205 178.181 75.4855 167.687 70.4032Z" fill="#785546"/>
<path d="M142.618 87.229C142.618 77.5254 149.537 69.4439 158.709 67.6326C157.18 67.4041 155.628 67.2474 154.036 67.2474C152.31 67.2474 150.629 67.4234 148.979 67.6914C148.569 66.6479 148.327 65.5465 148.327 64.3929C148.327 61.0039 150.209 57.9927 153.14 55.9017C145.683 56.2786 139.763 61.187 139.763 67.2477C139.763 68.3507 140.022 69.3945 140.387 70.4024C129.892 75.4844 122.636 86.2048 122.636 98.6477C122.636 112.836 134.138 124.339 148.327 124.339H154.036V107.211L142.618 95.7932V87.229H142.618Z" fill="#64463C"/>
<path d="M188.617 159.294L169.043 151.464C166.876 150.597 165.455 148.498 165.455 146.164V135.756H142.618V146.164C142.618 148.498 141.197 150.597 139.03 151.464L119.456 159.294C116.205 160.594 114.073 163.743 114.073 167.245V178.574C114.073 180.151 115.351 181.429 116.928 181.429V204.265C116.928 205.842 118.206 207.12 119.782 207.12H188.291C189.867 207.12 191.146 205.842 191.146 204.265V181.429C192.722 181.429 194 180.151 194 178.574V167.245C194 163.743 191.868 160.594 188.617 159.294Z" fill="#E6AF78"/>
<path d="M116.927 178.574V187.138H119.782C121.358 187.138 122.636 188.416 122.636 189.992V207.12H131.2V178.574H116.927Z" fill="#D29B6E"/>
<path d="M191.145 178.574V187.138H188.291C186.714 187.138 185.436 188.416 185.436 189.992V207.12H176.873V178.574H191.145Z" fill="#D29B6E"/>
<path d="M188.617 159.294L172.394 152.805C169.69 157.065 163.583 165.237 154.036 170.011C144.489 165.237 138.383 157.065 135.678 152.805L119.456 159.294C116.204 160.594 114.073 163.743 114.073 167.245V178.574C114.073 180.151 115.351 181.429 116.927 181.429H128.345V207.12H179.727V181.429H191.145C192.722 181.429 194 180.151 194 178.574V167.245C194 163.743 191.868 160.594 188.617 159.294Z" fill="#FFDC64"/>
<path d="M142.618 144.994C146.162 146.384 150.005 147.175 154.036 147.175C158.067 147.175 161.91 146.384 165.454 144.994V135.757H142.618V144.994H142.618Z" fill="#D29B6E"/>
<path d="M179.727 115.774C179.727 96.8752 159.298 103.512 145.008 94.6254C143.707 93.8162 141.975 94.1661 141.128 95.4432C138.923 98.77 134.41 104.243 128.528 104.354C125.31 104.415 122.636 106.801 122.636 110.02V110.065C122.636 113.218 125.192 115.774 128.345 115.774C128.345 117.737 128.566 119.648 128.982 121.484C131.578 132.924 141.81 141.465 154.036 141.465C166.262 141.465 176.494 132.924 179.09 121.484C179.507 119.648 179.727 117.737 179.727 115.774Z" fill="#F0C087"/>
<path d="M142.618 115.774V94.3682C142.032 94.5564 141.491 94.895 141.128 95.4432C138.923 98.77 134.41 104.243 128.528 104.355C125.31 104.416 122.636 106.802 122.636 110.02V110.065C122.636 113.218 125.192 115.774 128.345 115.774C128.345 117.737 128.565 119.648 128.982 121.484C131.578 132.925 141.81 141.465 154.036 141.465C156.517 141.465 158.909 141.098 161.179 140.441C150.463 137.348 142.618 127.486 142.618 115.774Z" fill="#E6AF78"/>
<path d="M154.036 130.047C151.014 130.047 148.126 128.621 146.111 126.136C145.116 124.911 145.306 123.114 146.529 122.12C147.759 121.128 149.554 121.317 150.544 122.54C152.428 124.859 155.645 124.859 157.529 122.54C158.519 121.317 160.317 121.128 161.544 122.12C162.768 123.114 162.957 124.911 161.962 126.136C159.946 128.621 157.058 130.047 154.036 130.047Z" fill="#D29B6E"/>
<path d="M165.454 115.774C163.877 115.774 162.6 114.496 162.6 112.92V110.065C162.6 108.489 163.877 107.211 165.454 107.211C167.032 107.211 168.309 108.489 168.309 110.065V112.92C168.309 114.496 167.032 115.774 165.454 115.774Z" fill="#64463C"/>
<path d="M142.618 115.774C141.04 115.774 139.763 114.496 139.763 112.92V110.065C139.763 108.489 141.04 107.211 142.618 107.211C144.196 107.211 145.472 108.489 145.472 110.065V112.92C145.472 114.496 144.196 115.774 142.618 115.774Z" fill="#64463C"/>
<path d="M128.345 178.085C128.345 176.57 127.744 175.118 126.673 174.048L115.371 162.746C114.55 164.072 114.073 165.615 114.073 167.245V178.574C114.073 180.151 115.351 181.429 116.927 181.429H128.345V178.085Z" fill="#FFC850"/>
<path d="M179.727 178.085C179.727 176.57 180.329 175.118 181.399 174.048L192.701 162.746C193.522 164.072 194 165.615 194 167.245V178.574C194 180.151 192.722 181.429 191.145 181.429H179.727V178.085Z" fill="#FFC850"/>
<path d="M65.1312 132.081L79.818 144.32L70.6133 151.224C69.38 152.149 67.6346 151.927 66.6714 150.723L58.2854 140.241C57.509 139.27 57.4498 137.908 58.1395 136.874L60.9286 132.69C61.87 131.278 63.8276 130.994 65.1312 132.081Z" fill="#C8FF82"/>
<path d="M94.5048 132.081L79.818 144.32L89.0227 151.224C90.256 152.149 92.0014 151.927 92.9645 150.723L101.351 140.241C102.127 139.27 102.186 137.908 101.496 136.874L98.7073 132.69C97.7662 131.278 95.8083 130.994 94.5048 132.081Z" fill="#C8FF82"/>
</g>
<defs>
<filter id="filter0_dd_2_55" x="0" y="0" width="247.562" height="258" filterUnits="userSpaceOnUse" color-interpolation-filters="sRGB">
<feFlood flood-opacity="0" result="BackgroundImageFix"/>
<feColorMatrix in="SourceAlpha" type="matrix" values="0 0 0 0 0 0 0 0 0 0 0 0 0 0 0 0 0 0 127 0" result="hardAlpha"/>
<feOffset dx="-7" dy="-7"/>
<feGaussianBlur stdDeviation="15"/>
<feColorMatrix type="matrix" values="0 0 0 0 0.14902 0 0 0 0 0.180392 0 0 0 0 0.196078 0 0 0 1 0"/>
<feBlend mode="normal" in2="BackgroundImageFix" result="effect1_dropShadow_2_55"/>
<feColorMatrix in="SourceAlpha" type="matrix" values="0 0 0 0 0 0 0 0 0 0 0 0 0 0 0 0 0 0 127 0" result="hardAlpha"/>
<feOffset dx="14" dy="14"/>
<feGaussianBlur stdDeviation="20"/>
<feColorMatrix type="matrix" values="0 0 0 0 0.0646354 0 0 0 0 0.0646354 0 0 0 0 0.0708333 0 0 0 0.75 0"/>
<feBlend mode="normal" in2="effect1_dropShadow_2_55" result="effect2_dropShadow_2_55"/>
<feBlend mode="normal" in="SourceGraphic" in2="effect2_dropShadow_2_55" result="shape"/>
</filter>
<linearGradient id="paint0_linear_2_55" x1="37" y1="37" x2="193.562" y2="204" gradientUnits="userSpaceOnUse">
<stop stop-color="#1F2328"/>
<stop offset="1" stop-color="#1A1C1F"/>
</linearGradient>
<linearGradient id="paint1_linear_2_55" x1="37" y1="37" x2="193.562" y2="204" gradientUnits="userSpaceOnUse">
<stop stop-color="#1F2328"/>
<stop offset="1" stop-color="#1A1C1F"/>
</linearGradient>
<linearGradient id="paint2_linear_2_55" x1="6.35439" y1="118.152" x2="171.131" y2="269.253" gradientUnits="userSpaceOnUse">
<stop stop-color="#131517"/>
<stop offset="0.763408" stop-color="#1E2226" stop-opacity="0"/>
</linearGradient>
<linearGradient id="paint3_linear_2_55" x1="91.1101" y1="140.07" x2="255.887" y2="291.172" gradientUnits="userSpaceOnUse">
<stop stop-color="#131517"/>
<stop offset="0.763408" stop-color="#1E2226" stop-opacity="0"/>
</linearGradient>
</defs>
</svg>
