<svg width="248" height="258" viewBox="0 0 248 258" fill="none" xmlns="http://www.w3.org/2000/svg">
<g filter="url(#filter0_dd_2_167)">
<rect x="37" y="37" width="156.562" height="167" rx="8" fill="url(#paint0_linear_2_167)"/>
</g>
<mask id="mask0_2_167" style="mask-type:alpha" maskUnits="userSpaceOnUse" x="37" y="37" width="157" height="167">
<path d="M37 45C37 40.5817 40.5817 37 45 37H185.562C189.981 37 193.562 40.5817 193.562 45V196C193.562 200.418 189.981 204 185.562 204H45C40.5817 204 37 200.418 37 196V45Z" fill="url(#paint1_linear_2_167)"/>
</mask>
<g mask="url(#mask0_2_167)">
</g>
<mask id="mask1_2_167" style="mask-type:alpha" maskUnits="userSpaceOnUse" x="37" y="37" width="157" height="167">
<path d="M37 45C37 40.5817 40.5817 37 45 37H185.562C189.981 37 193.562 40.5817 193.562 45V196C193.562 200.418 189.981 204 185.562 204H45C40.5817 204 37 200.418 37 196V45Z" fill="url(#paint2_linear_2_167)"/>
</mask>
<g mask="url(#mask1_2_167)">
<rect x="-13.6218" y="110.062" width="110.637" height="194.137" rx="4" transform="rotate(-30 -13.6218 110.062)" fill="url(#paint3_linear_2_167)"/>
<rect x="71.1339" y="131.981" width="110.637" height="194.137" rx="4" transform="rotate(-30 71.1339 131.981)" fill="url(#paint4_linear_2_167)"/>
<path d="M152.616 201.228H77.3839L75 198.844V182.31C75 173.253 78.903 165.108 85.1186 159.465H144.881C151.097 165.108 155 173.253 155 182.31V198.844L152.616 201.228Z" fill="#86DCFF"/>
<path d="M76.3245 203.612H88.9407L90.7953 201.386L92.65 203.612H137.35L139.205 201.386L141.059 203.612H153.676C154.407 203.612 155 203.019 155 202.287V198.844H75V202.287C75 203.019 75.593 203.612 76.3245 203.612Z" fill="#56CAED"/>
<path d="M115 177.537L134.942 155.594L134.81 153.355C131.488 152.131 127.899 151.462 124.152 151.462H105.848C102.136 151.462 98.5787 152.119 95.2831 153.32L95.3869 155.956L115 177.537Z" fill="#E4EEF9"/>
<path d="M95.1906 153.356C94.1248 153.748 93.0862 154.197 92.0792 154.7L92.8992 158.226L115 182.305L137.325 157.978L137.921 154.7C136.914 154.197 135.875 153.748 134.809 153.356L115.98 174.074C115.454 174.653 114.545 174.653 114.02 174.074L95.1906 153.356Z" fill="#D5E0F2"/>
<path d="M115 177.537C115 177.537 118.432 173.761 120.61 171.363L121.102 168.439L119.641 160.43L115 158.045L110.359 160.429L108.898 168.438L109.389 171.363L115 177.537Z" fill="#FF5876"/>
<path d="M119.641 160.429H110.359L108.335 151.462H121.665L119.641 160.429Z" fill="#E6485D"/>
<path d="M121.826 172.409L121.102 168.439L115.98 174.074C115.454 174.653 114.545 174.653 114.02 174.074L108.898 168.439L108.173 172.409L115 184.689L121.826 172.409Z" fill="#E6485D"/>
<path d="M92.0793 154.7C90.5071 155.486 89.0107 156.401 87.6051 157.433L87.9093 160.152L112.06 186.725C113.636 188.46 116.364 188.46 117.94 186.725L142.352 159.864L142.395 157.433C140.989 156.401 139.493 155.486 137.92 154.7L115.915 178.914C115.424 179.454 114.575 179.454 114.085 178.914L92.0793 154.7Z" fill="#FFCF4D"/>
<path d="M117.94 184.341C116.364 186.076 113.636 186.076 112.06 184.341L87.6056 157.434C86.7413 158.068 85.9109 158.746 85.1186 159.465L112.06 189.109C113.636 190.844 116.364 190.844 117.94 189.109L144.881 159.465C144.089 158.745 143.258 158.068 142.394 157.433L117.94 184.341Z" fill="#FFB629"/>
<path d="M92.3473 125.192L89.9634 118.775C89.6795 118.746 89.3917 118.731 89.1002 118.731C85.354 118.731 82.1842 121.199 81.1273 124.597C80.8835 125.381 81.1157 133.044 89.1002 133.044L90.0272 130.607L92.3473 125.192Z" fill="#FFC4AD"/>
<path d="M89.1002 130.66C85.3181 130.66 82.1254 128.144 81.0994 124.695C80.8746 125.451 80.752 126.251 80.752 127.079C80.752 131.69 84.4895 135.427 89.1002 135.427C89.6835 135.427 90.2526 135.367 90.8023 135.253L92.7062 133.044L90.0293 130.607C89.7241 130.641 89.4142 130.66 89.1002 130.66Z" fill="#FFB69F"/>
<path d="M137.653 125.192L140.037 118.775C140.32 118.746 140.608 118.731 140.9 118.731C144.646 118.731 147.816 121.199 148.873 124.597C149.117 125.381 148.884 133.044 140.9 133.044L139.973 130.607L137.653 125.192Z" fill="#FFC4AD"/>
<path d="M140.9 130.66C144.682 130.66 147.875 128.144 148.901 124.695C149.125 125.451 149.248 126.251 149.248 127.079C149.248 131.69 145.511 135.427 140.9 135.427C140.317 135.427 139.748 135.367 139.198 135.253L137.294 133.044L139.971 130.607C140.276 130.641 140.586 130.66 140.9 130.66Z" fill="#FFB69F"/>
<path d="M89.9635 93.0709V124.042V126.426C89.9635 140.253 101.173 151.462 115 151.462C128.827 151.462 140.037 140.253 140.037 126.426V124.042V93.0709H89.9635Z" fill="#FFE0CC"/>
<path d="M115 149.078C101.173 149.078 89.9635 137.869 89.9635 124.042V128.809C89.9635 142.637 101.173 153.846 115 153.846C128.827 153.846 140.037 142.637 140.037 128.809V124.042C140.037 137.869 128.827 149.078 115 149.078Z" fill="#FFCEB3"/>
<path d="M138.883 110.791C134.395 106.964 130.472 102.729 130.472 102.729C123.323 108.475 117.951 108.979 117.951 108.979L112.697 103.852C103.763 110.582 93.4463 111.911 90.6339 111.841C90.2063 111.831 89.783 111.761 89.3732 111.635C82.8196 109.629 80.3435 105.655 80.3435 105.655C80.3435 105.655 79.5776 103.915 80.7866 103.682C87.115 102.465 89.3396 98.1282 89.3396 98.1282C82.2958 98.3411 80.0203 93.1191 79.3024 90.2483C79.081 89.3635 79.7888 88.5299 80.6981 88.6014C93.8531 89.6368 97.0459 81.5297 109.416 77.8762C122.307 74.069 131.434 83.9017 131.434 83.9017C131.434 83.9017 144.498 82.6402 145.619 95.9587C146.691 108.688 138.883 110.791 138.883 110.791Z" fill="#2D4456"/>
<path d="M139.113 108.484C135.955 106.251 133.056 102.117 131.552 99.7499C131.057 98.9697 129.944 98.9386 129.378 99.6693C123.966 106.66 112.697 103.852 112.697 103.852C112.697 103.852 115.464 107.241 115.458 111.221C115.457 112.077 116.241 112.715 117.075 112.524C120.256 111.799 126.914 109.515 130.472 102.729C130.472 102.729 134.516 109.999 139.11 113.251C139.65 113.632 140.388 113.558 140.84 113.076C142.56 111.24 146.376 106.002 145.639 96.2458C145.089 102.977 142.259 106.791 140.843 108.304C140.39 108.788 139.653 108.867 139.113 108.484Z" fill="#253847"/>
<path d="M112.977 102.282C113.156 101.037 111.665 100.261 110.76 101.134C102.725 108.898 93.2338 109.522 90.6338 109.457C90.2062 109.447 89.7828 109.377 89.3731 109.252C86.1912 108.278 83.1135 105.885 80.7862 103.68C80.3248 103.769 79.8418 103.842 79.3364 103.895C78.2579 104.008 77.7587 105.295 78.4874 106.098C80.7783 108.622 84.9788 112.674 89.3731 114.019C89.7831 114.145 90.2062 114.215 90.6338 114.225C93.4462 114.295 104.322 113.559 112.697 103.852C112.82 103.258 112.911 102.737 112.977 102.282Z" fill="#253847"/>
<path d="M92.6501 185.307V198.844L90.7954 201.228L88.9407 198.844V185.307C88.9407 184.281 89.7716 183.453 90.7954 183.453C91.8217 183.453 92.6501 184.281 92.6501 185.307Z" fill="#4EA1F4"/>
<path d="M88.9407 198.844H92.6501V203.612H88.9407V198.844Z" fill="#3292E0"/>
<path d="M141.059 185.307V198.844L139.205 201.228L137.35 198.844V185.307C137.35 184.281 138.181 183.453 139.205 183.453C140.231 183.453 141.059 184.281 141.059 185.307Z" fill="#4EA1F4"/>
<path d="M137.35 198.844H141.059V203.612H137.35V198.844Z" fill="#3292E0"/>
<path d="M115 141.572C122.062 141.572 124.197 136.608 124.29 136.383C124.291 136.383 124.291 136.382 124.291 136.382C124.854 135.118 123.854 133.592 122.46 133.623C121.632 133.623 120.923 134.13 120.625 134.85C120.524 135.062 119.235 137.599 115 137.599C110.767 137.599 109.477 135.064 109.376 134.85C109.077 134.13 108.368 133.623 107.54 133.623C106.147 133.592 105.147 135.118 105.709 136.382C105.71 136.382 105.71 136.383 105.71 136.383C105.803 136.608 107.938 141.572 115 141.572Z" fill="#FF5876"/>
<path d="M102.868 119.128C101.771 119.128 100.882 120.018 100.882 121.115V126.728C100.882 127.825 101.771 128.714 102.868 128.714C103.965 128.714 104.855 127.825 104.855 126.728V121.115C104.855 120.018 103.965 119.128 102.868 119.128Z" fill="#2D4456"/>
<path d="M127.132 128.714C128.229 128.714 129.119 127.825 129.119 126.728V121.115C129.119 120.018 128.229 119.129 127.132 119.129C126.035 119.129 125.145 120.018 125.145 121.115V126.728C125.145 127.825 126.035 128.714 127.132 128.714Z" fill="#2D4456"/>
</g>
<defs>
<filter id="filter0_dd_2_167" x="0" y="0" width="247.562" height="258" filterUnits="userSpaceOnUse" color-interpolation-filters="sRGB">
<feFlood flood-opacity="0" result="BackgroundImageFix"/>
<feColorMatrix in="SourceAlpha" type="matrix" values="0 0 0 0 0 0 0 0 0 0 0 0 0 0 0 0 0 0 127 0" result="hardAlpha"/>
<feOffset dx="-7" dy="-7"/>
<feGaussianBlur stdDeviation="15"/>
<feColorMatrix type="matrix" values="0 0 0 0 0.14902 0 0 0 0 0.180392 0 0 0 0 0.196078 0 0 0 1 0"/>
<feBlend mode="normal" in2="BackgroundImageFix" result="effect1_dropShadow_2_167"/>
<feColorMatrix in="SourceAlpha" type="matrix" values="0 0 0 0 0 0 0 0 0 0 0 0 0 0 0 0 0 0 127 0" result="hardAlpha"/>
<feOffset dx="14" dy="14"/>
<feGaussianBlur stdDeviation="20"/>
<feColorMatrix type="matrix" values="0 0 0 0 0.0646354 0 0 0 0 0.0646354 0 0 0 0 0.0708333 0 0 0 0.75 0"/>
<feBlend mode="normal" in2="effect1_dropShadow_2_167" result="effect2_dropShadow_2_167"/>
<feBlend mode="normal" in="SourceGraphic" in2="effect2_dropShadow_2_167" result="shape"/>
</filter>
<linearGradient id="paint0_linear_2_167" x1="37" y1="37" x2="193.562" y2="204" gradientUnits="userSpaceOnUse">
<stop stop-color="#1F2328"/>
<stop offset="1" stop-color="#1A1C1F"/>
</linearGradient>
<linearGradient id="paint1_linear_2_167" x1="37" y1="37" x2="193.562" y2="204" gradientUnits="userSpaceOnUse">
<stop stop-color="#1F2328"/>
<stop offset="1" stop-color="#1A1C1F"/>
</linearGradient>
<linearGradient id="paint2_linear_2_167" x1="37" y1="37" x2="193.562" y2="204" gradientUnits="userSpaceOnUse">
<stop stop-color="#1F2328"/>
<stop offset="1" stop-color="#1A1C1F"/>
</linearGradient>
<linearGradient id="paint3_linear_2_167" x1="6.35439" y1="118.152" x2="171.131" y2="269.253" gradientUnits="userSpaceOnUse">
<stop stop-color="#131517"/>
<stop offset="0.763408" stop-color="#1E2226" stop-opacity="0"/>
</linearGradient>
<linearGradient id="paint4_linear_2_167" x1="91.1101" y1="140.07" x2="255.887" y2="291.172" gradientUnits="userSpaceOnUse">
<stop stop-color="#131517"/>
<stop offset="0.763408" stop-color="#1E2226" stop-opacity="0"/>
</linearGradient>
</defs>
</svg>
