<svg width="23" height="24" viewBox="0 0 23 24" fill="none" xmlns="http://www.w3.org/2000/svg">
<path d="M22.1541 12.924V12.957C22.1541 14.499 21.8301 15.965 21.2471 17.291L21.2741 17.222C19.5521 21.233 15.6371 23.99 11.0771 23.99C6.51707 23.99 2.60207 21.232 0.908067 17.294L0.880067 17.222C0.294797 15.8765 -0.0048555 14.4242 6.73145e-05 12.957V12.922V12.888C6.73145e-05 9.293 1.72907 6.103 4.40007 4.102L4.42907 4.082C4.62379 3.93077 4.84731 3.82084 5.08596 3.75895C5.32462 3.69705 5.57339 3.68448 5.81707 3.722L5.80707 3.721C6.30807 3.78 6.73607 4.049 7.00707 4.436L7.01107 4.441C7.16218 4.6321 7.27157 4.85275 7.3322 5.08871C7.39282 5.32468 7.40334 5.57072 7.36307 5.811L7.36407 5.801C7.33373 6.04081 7.2553 6.27203 7.13347 6.4808C7.01165 6.68958 6.84893 6.87161 6.65507 7.016L6.65007 7.019C5.72834 7.70753 4.98 8.60165 4.46458 9.63024C3.94915 10.6588 3.68087 11.7935 3.68107 12.944C3.68124 14.2044 4.00345 15.4438 4.61713 16.5446C5.2308 17.6455 6.11559 18.5713 7.18754 19.2342C8.25949 19.8971 9.48304 20.2751 10.7421 20.3324C12.0012 20.3896 13.254 20.1242 14.3816 19.5613C15.5093 18.9984 16.4745 18.1567 17.1855 17.1161C17.8966 16.0755 18.3299 14.8704 18.4445 13.6153C18.559 12.3601 18.3509 11.0965 17.84 9.94436C17.3291 8.79221 16.5322 7.78971 15.5251 7.032L15.5061 7.018C15.3125 6.87434 15.1496 6.69334 15.0272 6.48569C14.9047 6.27803 14.8251 6.04794 14.7931 5.809L14.7921 5.8C14.7534 5.56054 14.7651 5.31566 14.8264 5.08098C14.8877 4.8463 14.9973 4.62697 15.1481 4.437L15.1451 4.441C15.2834 4.24298 15.4622 4.07652 15.6695 3.95259C15.8769 3.82866 16.1081 3.75007 16.3481 3.722L16.3561 3.721C16.598 3.68389 16.8449 3.69706 17.0815 3.75969C17.3181 3.82232 17.5392 3.93306 17.7311 4.085L17.7271 4.082C20.4291 6.103 22.1591 9.295 22.1591 12.891V12.925V12.923L22.1541 12.924ZM12.9241 1.847V11.115C12.9241 11.6046 12.7296 12.0741 12.3834 12.4203C12.0372 12.7665 11.5677 12.961 11.0781 12.961C10.5885 12.961 10.1189 12.7665 9.77275 12.4203C9.42656 12.0741 9.23207 11.6046 9.23207 11.115V11.075V11.077V1.847V1.831C9.23207 1.327 9.44207 0.872 9.77907 0.549L9.78007 0.548C10.1091 0.21 10.5691 0 11.0781 0C11.5871 0 12.0471 0.21 12.3761 0.548C12.7141 0.872 12.9241 1.326 12.9241 1.83V1.847V1.846V1.847Z" fill="#0C92E4"/>
</svg>
